<?xml version="1.0" encoding="utf-8"?><svg xmlns="http://www.w3.org/2000/svg" viewBox="0 0 48 48">
  <g transform="matrix(0.1, 0, 0, -0.1, 0, 48.000001)" fill="#000000" stroke="none">
    <path d="M20 460 c-19 -19 -20 -33 -20 -203 0 -227 -7 -217 138 -217 85 0 100 2 96 15 -4 11 -28 15 -97 17 l-92 3 -3 163 -2 162 185 0 185 0 0 -74 c0 -56 4 -75 15 -80 13 -5 15 10 15 98 0 142 10 136 -218 136 -169 0 -183 -1 -202 -20z" style="fill: rgb(66, 66, 66);"/>
    <path d="M92 313 c5 -26 38 -29 38 -4 0 15 -6 21 -21 21 -14 0 -19 -5 -17 -17z" style="fill: rgb(66, 66, 66);"/>
    <path d="M170 310 c0 -19 7 -20 90 -20 83 0 90 1 90 20 0 19 -7 20 -90 20 -83 0 -90 -1 -90 -20z" style="fill: rgb(66, 66, 66);"/>
    <path d="M97 253 c-14 -13 -6 -33 13 -33 13 0 20 7 20 20 0 19 -20 27 -33 13z" style="fill: rgb(66, 66, 66);"/>
    <path d="M170 240 c0 -17 7 -20 50 -20 32 0 61 7 82 20 l33 20 -82 0 c-76 0 -83 -2 -83 -20z" style="fill: rgb(66, 66, 66);"/>
    <path d="M312 200 c-81 -50 -59 -178 35 -196 64 -12 133 42 133 104 0 36 -27 80 -60 97 -39 20 -69 19 -108 -5z m40 -47 c17 -15 19 -15 38 2 16 14 23 16 32 7 9 -9 7 -16 -7 -32 -18 -19 -18 -21 0 -40 14 -16 16 -23 7 -32 -9 -9 -16 -7 -32 7 -19 18 -21 18 -40 0 -16 -14 -23 -16 -32 -7 -9 9 -7 16 7 32 17 19 17 21 1 39 -10 11 -15 25 -11 30 9 15 15 14 37 -6z" style="fill: rgb(66, 66, 66);"/>
    <path d="M90 165 c0 -8 9 -15 20 -15 11 0 20 7 20 15 0 8 -9 15 -20 15 -11 0 -20 -7 -20 -15z" style="fill: rgb(66, 66, 66);"/>
    <path d="M170 165 c0 -10 10 -15 29 -15 16 0 31 6 35 15 4 12 -3 15 -29 15 -24 0 -35 -5 -35 -15z" style="fill: rgb(66, 66, 66);"/>
  </g>
</svg>