<?xml version="1.0" encoding="utf-8"?><svg xmlns="http://www.w3.org/2000/svg" viewBox="0 0 835 743">
  <g transform="matrix(0.1, 0, 0, -0.1, 0, 743.000011)" fill="#000000" stroke="none">
    <path d="M4072 7405 c-176 -38 -349 -172 -475 -366 -30 -46 -105 -172 -167 -279 -61 -107 -154 -267 -205 -355 -51 -88 -204 -353 -341 -590 -136 -236 -306 -531 -378 -655 -71 -124 -203 -353 -294 -510 -188 -326 -366 -635 -574 -995 -380 -657 -458 -793 -600 -1037 -83 -145 -208 -362 -278 -483 -69 -121 -195 -339 -280 -485 -383 -661 -392 -679 -436 -828 -33 -115 -40 -227 -20 -322 61 -287 297 -459 673 -490 166 -13 6801 -14 6963 0 145 12 250 39 359 92 154 74 276 220 312 373 19 82 14 230 -10 324 -38 144 -71 208 -446 856 -70 121 -196 339 -280 485 -84 146 -222 384 -306 530 -84 146 -216 375 -294 510 -78 135 -210 364 -295 510 -172 298 -697 1208 -860 1490 -58 102 -175 304 -260 450 -204 353 -421 729 -565 980 -263 459 -329 554 -450 654 -82 66 -221 131 -312 145 -88 13 -101 13 -181 -4z m201 -1182 c47 -82 151 -263 232 -403 81 -140 207 -358 280 -485 73 -126 208 -360 300 -520 92 -159 225 -389 294 -510 70 -121 273 -472 451 -780 178 -308 382 -661 453 -785 136 -236 230 -399 517 -895 95 -165 223 -388 285 -495 62 -107 151 -261 198 -343 48 -81 87 -152 87 -157 0 -7 -1108 -10 -3190 -10 -2249 0 -3190 3 -3190 11 0 6 31 63 69 127 38 64 129 223 204 352 74 129 192 334 262 455 70 121 196 339 280 485 84 146 210 364 280 485 70 121 204 353 297 515 94 162 232 401 306 530 75 129 199 345 277 480 78 135 201 349 274 475 74 127 218 376 321 555 103 179 245 424 315 545 70 121 165 286 212 368 46 81 88 147 93 147 5 0 47 -66 93 -147z" style="fill: rgb(229, 107, 0);"/>
    <path d="M3554 4613 c8 -57 196 -2029 196 -2049 0 -12 67 -14 420 -14 l419 0 6 33 c3 17 50 477 105 1022 55 545 102 1005 105 1023 l6 32 -631 0 -632 0 6 -47z" style="fill: rgb(229, 107, 0);"/>
    <path d="M3750 1695 l0 -415 420 0 420 0 0 415 0 415 -420 0 -420 0 0 -415z" style="fill: rgb(229, 107, 0);"/>
  </g>
</svg>