<?xml version="1.0" encoding="utf-8"?><svg xmlns="http://www.w3.org/2000/svg" viewBox="0 0 1281 1024" style="width: 1.2509765625em; height: 1em;vertical-align: middle;fill: currentColor;overflow: hidden;">
  <path d="M 1072.17 671.992 a 159.997 159.997 0 0 0 -150.398 108.799 l -591.992 -233.597 l 592.792 -302.396 a 159.997 159.997 0 1 0 -6.39992 -79.9989 a 39.1995 39.1995 0 0 0 -12.7999 0 L 256.977 494.394 A 119.998 119.998 0 0 0 158.578 431.995 A 121.598 121.598 0 0 0 32.18 545.593 A 119.998 119.998 0 0 0 145.779 671.992 h 6.39991 a 119.998 119.998 0 0 0 107.198 -66.3991 l 647.191 255.197 h 8.79988 A 159.997 159.997 0 1 0 1072.17 671.992 Z m 0 -559.992 a 79.9989 79.9989 0 1 1 -79.9989 79.9989 a 79.9989 79.9989 0 0 1 79.9989 -79.9989 Z M 149.778 591.992 a 39.9995 39.9995 0 0 1 0 -79.9989 a 39.9995 39.9995 0 1 1 -3.99995 79.9989 Z M 1072.17 911.988 a 79.9989 79.9989 0 1 1 79.9989 -79.9989 a 79.9989 79.9989 0 0 1 -79.9989 79.9989 Z" style="fill: rgb(197, 197, 197);"/>
  <g transform="matrix(11.725243, 0, 0, 11.519765, -187.855273, -68.885438)" style="">
    <g>
      <path class="st0" d="M33.6,36.4h32.8c1.1,0,2,0.9,2,2v49.7c0,1.1-0.9,2-2,2H33.6c-1.1,0-2-0.9-2-2V38.4 C31.6,37.3,32.5,36.4,33.6,36.4z" style="fill: rgb(97, 155, 255); stroke: rgb(97, 155, 255);"/>
      <polygon class="st1" points="50,50 19.8,50 34.9,29.9 50,9.9 65.1,30 80.2,50 &#9;&#9;&#9;" style="stroke-linecap: round; stroke-linejoin: round; stroke-miterlimit: 10; stroke-width: 4px; fill: rgb(97, 155, 255); stroke: rgb(97, 155, 255);"/>
    </g>
  </g>
</svg>