<?xml version="1.0" encoding="utf-8"?><svg xmlns="http://www.w3.org/2000/svg" viewBox="0 0 1600 1600">
  <g transform="matrix(0.1, 0, 0, -0.1, 0, 1600.000024)" fill="#000000" stroke="none">
    <path d="M1920 13910 l0 -1500 776 -2 c427 -2 778 -1 780 1 2 2 4 510 4 1128 l0 1123 390 0 390 0 0 -1127 0 -1128 382 2 383 3 3 1500 2 1500 -1555 0 -1555 0 0 -1500z" style="fill: rgb(197, 197, 197);"/>
    <path d="M5650 13530 l0 -1880 775 0 775 0 0 375 c0 206 1 376 3 377 1 2 351 5 777 8 l775 5 3 1498 2 1497 -1555 0 -1555 0 0 -1880z m2330 375 l0 -755 -387 2 -388 3 -3 753 -2 752 390 0 390 0 0 -755z" style="fill: rgb(197, 197, 197);"/>
    <path d="M9390 13908 l0 -1503 767 2 768 3 3 1125 2 1125 390 0 390 0 2 -1125 3 -1126 380 0 380 0 5 1123 5 1123 388 3 387 2 0 -1114 c0 -613 2 -1120 5 -1128 4 -11 77 -12 390 -10 l385 2 0 1500 0 1500 -2325 0 -2325 0 0 -1502z" style="fill: rgb(197, 197, 197);"/>
    <path d="M7915 10920 c-251 -35 -444 -202 -531 -460 -18 -53 -19 -149 -22 -2640 l-2 -2584 -593 591 c-586 585 -643 636 -753 683 -121 52 -284 66 -406 35 -197 -50 -367 -199 -441 -385 -88 -221 -48 -455 111 -650 33 -41 660 -673 1391 -1405 l1331 -1330 1373 1375 c1034 1036 1381 1389 1406 1432 107 184 128 382 59 566 -70 190 -245 346 -444 396 -120 31 -291 17 -407 -33 -108 -47 -171 -104 -754 -685 l-593 -590 -2 2584 -3 2585 -28 80 c-62 176 -174 301 -338 381 -97 47 -243 69 -354 54z" style="fill: rgb(197, 197, 197);"/>
    <path d="M640 3513 c0 -1025 3 -1105 48 -1308 118 -529 453 -927 939 -1114 155 -60 301 -94 498 -116 194 -22 11565 -22 11755 -1 422 48 747 194 1004 449 221 221 355 471 427 800 46 207 49 285 49 1300 l0 957 -640 0 -639 0 -4 -977 c-2 -863 -5 -984 -19 -1030 -38 -125 -91 -175 -218 -210 -62 -17 -335 -18 -5830 -18 -6163 0 -5836 -3 -5935 47 -53 27 -83 55 -107 102 -45 89 -47 134 -48 1139 l0 947 -640 0 -640 0 0 -967z" style="fill: rgb(197, 197, 197);"/>
  </g>
</svg>