<?xml version="1.0" encoding="utf-8"?><svg xmlns="http://www.w3.org/2000/svg" viewBox="0 0 652 652" style="enable-background:new 0 0 652 652;">
  <path d="M 214.961 239.517 L 291.861 239.517 L 291.861 201.017 L 368.761 201.017 L 368.761 47.117 L 214.961 47.117 L 214.961 239.517 Z M 291.861 85.617 L 330.361 85.617 L 330.361 162.517 L 291.861 162.517 L 291.861 85.617 Z M 399.561 47.117 L 399.561 200.917 L 476.461 200.917 L 476.461 85.617 L 514.961 85.617 L 514.961 201.017 L 553.461 201.017 L 553.461 85.617 L 591.961 85.617 L 591.961 201.017 L 630.361 201.017 L 630.361 47.117 L 399.561 47.117 Z M 30.361 201.017 L 107.261 201.017 L 107.261 85.617 L 145.761 85.617 L 145.761 201.017 L 184.261 201.017 L 184.261 47.117 L 30.361 47.117 L 30.361 201.017 Z" style="fill: rgb(197, 197, 197);"/>
  <g transform="matrix(0, 12.115623, 13.16023, 0, 2639.805948, 7232.658799)" style="">
    <path d="M-544.88-165.121l-7.342-7.342c-1.095,1.701-2.541,3.148-4.242,4.242l7.343,7.342c1.172,1.172,3.071,1.172,4.241,0   C-543.707-162.048-543.707-163.947-544.88-165.121z" style="fill: rgb(197, 197, 197);"/>
    <path d="M-552-180c0-6.627-5.373-12-12-12s-12,5.373-12,12s5.373,12,12,12S-552-173.373-552-180z M-564-171c-4.964,0-9-4.036-9-9   c0-4.963,4.036-9,9-9c4.963,0,9,4.037,9,9C-555-175.036-559.037-171-564-171z" style="fill: rgb(197, 197, 197);"/>
    <path d="M-571-180h2c0-2.757,2.242-5,5-5v-2C-567.86-187-571-183.858-571-180z" style="fill: rgb(197, 197, 197);"/>
  </g>
</svg>